<svg width="448px" height="103px" viewBox="0 0 448 103" version="1.1" xmlns="http://www.w3.org/2000/svg" xmlns:xlink="http://www.w3.org/1999/xlink">
    <!-- Generator: Sketch 55.2 (78181) - https://sketchapp.com -->
    <title>Untitled 4</title>
    <desc>Created with Sketch.</desc>
    <g id="Page-1" stroke="none" stroke-width="1" fill="none" fill-rule="evenodd">
        <g id="DTG_Logo_Final-01" fill="#1D2C4C" fill-rule="nonzero">
            <path d="M167.1,36 C171.7,40.2 174.1,46.1 174.1,53.6 C174.1,61.1 171.8,67 167.3,71.4 C162.8,75.8 155.9,78 146.6,78 L130.6,78 L130.6,29.8 L147.2,29.8 C155.8,29.7 162.4,31.8 167.1,36 Z M165.8,53.8 C165.8,42.8 159.5,37.2 146.8,37.2 L138.7,37.2 L138.7,70.2 L147.7,70.2 C153.5,70.2 158,68.8 161.1,66 C164.2,63.2 165.8,59.2 165.8,53.8 Z" id="Shape"></path>
            <polygon id="Path" points="200 37.1 200 77.9 191.9 77.9 191.9 37.1 177.3 37.1 177.3 29.7 214.7 29.7 214.7 37.1"></polygon>
            <path d="M271.7,54.4 L279.8,54.4 L279.8,70.9 C275.2,75.9 268.7,78.4 260.3,78.4 C253.630565,78.5928485 247.16929,76.0660929 242.4,71.4 C237.607935,66.7402944 234.995157,60.2809269 235.2,53.6 C235.2,46.4 237.6,40.4 242.5,35.7 C247.203284,30.9731592 253.633096,28.3723361 260.3,28.5 C267.2,28.5 273,30.5 277.6,34.6 L273.3,40.8 C271.636039,39.3351142 269.698907,38.2136167 267.6,37.5 C265.425806,36.8592628 263.16621,36.5557349 260.9,36.6 C256.340948,36.4852176 251.920789,38.1742217 248.6,41.3 C245.258335,44.5426659 243.442346,49.0463186 243.6,53.7 C243.6,58.8 245.2,62.9 248.4,66 C251.507193,69.0794633 255.725958,70.774181 260.1,70.7 C264.144104,70.8450181 268.142091,69.802065 271.6,67.7 L271.6,54.4 L271.7,54.4 Z" id="Path"></path>
            <polygon id="Path" points="297.2 77.9 289.5 77.9 289.5 26.7 297.2 26.7"></polygon>
            <path d="M339,73 C331.2619,80.334707 319.1381,80.334707 311.4,73 C304.064701,65.5724485 304.064701,53.6275515 311.4,46.2 C319.1381,38.865293 331.2619,38.865293 339,46.2 C342.617559,49.7070938 344.610538,54.5627169 344.5,59.6 C344.637752,64.6423034 342.640452,69.5084521 339,73 Z M316.9,68.2 C321.559057,72.5989382 328.840943,72.5989382 333.5,68.2 C335.749291,65.8770077 336.942848,62.7303555 336.8,59.5 C336.905823,56.2756964 335.717566,53.1430179 333.5,50.8 C328.840943,46.4010618 321.559057,46.4010618 316.9,50.8 C314.650709,53.1229923 313.457152,56.2696445 313.6,59.5 C313.550711,62.7146437 314.731153,65.826718 316.9,68.2 Z" id="Shape"></path>
            <path d="M373,40.6 C377.716908,40.5258926 382.262633,42.3658289 385.6,45.7 C389.1,49.1 390.8,53.6 390.8,59.3 C390.8,65 389.1,69.6 385.6,73.1 C382.472129,76.4625117 378.092352,78.3809263 373.5,78.4 C368.9,78.4 364.7,76.4 361,72.3 L361,77.8 L353.3,77.8 L353.3,26.6 L361,26.6 L361,47.5 C364.1,43 368.1,40.6 373,40.6 Z M360.9,59.6 C360.785237,62.7773958 361.936145,65.8704623 364.1,68.2 C366.082465,70.3422957 368.881465,71.5418669 371.8,71.5 C374.773431,71.5246866 377.62764,70.332422 379.7,68.2 C381.999517,65.9438023 383.235026,62.8186911 383.1,59.6 C383.187674,56.3488972 382.003767,53.1918122 379.8,50.8 C377.775013,48.5757071 374.907993,47.3055083 371.9,47.3 C368.91264,47.2668403 366.061216,48.5463252 364.1,50.8 C361.966223,53.2274789 360.82388,56.3689221 360.9,59.6 L360.9,59.6 Z" id="Shape"></path>
            <path d="M429.4,77.9 L422.4,77.9 L422.4,73 C419.393121,76.597628 414.884757,78.5931332 410.2,78.4 C406.751748,78.5091491 403.379455,77.3732188 400.7,75.2 C398.173042,73.0311149 396.773855,69.8277117 396.9,66.5 C396.9,62.9 398.2,60.2 400.9,58.4 C403.6,56.6 407.2,55.7 411.7,55.7 L421.7,55.7 L421.7,54.3 C421.7,49.4 419,47 413.6,47 C410.2,47 406.7,48.2 403,50.7 L399.6,45.9 C403.905437,42.4361635 409.274272,40.5641353 414.8,40.6 C419.1,40.6 422.7,41.7 425.4,43.9 C428.1,46.1 429.5,49.5 429.5,54.2 L429.4,77.9 Z M421.7,64.2 L421.7,61.1 L413,61.1 C407.4,61.1 404.7,62.8 404.7,66.3 C404.611769,67.9448665 405.413635,69.5104142 406.8,70.4 C408.558771,71.4139717 410.572338,71.9000051 412.6,71.8 C414.911382,71.8570264 417.17174,71.1153466 419,69.7 C420.783447,68.4508337 421.802496,66.3749927 421.7,64.2 L421.7,64.2 Z" id="Shape"></path>
            <polygon id="Path" points="447.9 77.9 440.2 77.9 440.2 26.7 447.9 26.7"></polygon>
            <path d="M66.81,102.78 L38.19,102.78 C37.5167267,102.830288 36.8719271,102.499584 36.5199283,101.923457 C36.1679294,101.34733 36.1679294,100.62267 36.5199283,100.046543 C36.8719271,99.4704159 37.5167267,99.1397123 38.19,99.19 L66.81,99.19 C67.4832733,99.1397123 68.1280729,99.4704159 68.4800717,100.046543 C68.8320706,100.62267 68.8320706,101.34733 68.4800717,101.923457 C68.1280729,102.499584 67.4832733,102.830288 66.81,102.78 L66.81,102.78 Z" id="Path"></path>
            <path d="M98.32,75.23 L6.68,75.23 C5.61409043,75.23 4.75,74.3659096 4.75,73.3 C4.75,72.2340904 5.61409043,71.37 6.68,71.37 L98.32,71.37 C99.3859096,71.37 100.25,72.2340904 100.25,73.3 C100.25,74.3659096 99.3859096,75.23 98.32,75.23 Z" id="Path"></path>
            <path d="M88.8,89.07 L16.2,89.07 C15.1340904,89.07 14.27,88.2059096 14.27,87.14 C14.27,86.0740904 15.1340904,85.21 16.2,85.21 L88.8,85.21 C89.8659096,85.21 90.73,86.0740904 90.73,87.14 C90.73,88.2059096 89.8659096,89.07 88.8,89.07 L88.8,89.07 Z" id="Path"></path>
            <path d="M34.55,61.38 L2.55,61.38 C1.82914564,61.4319893 1.13965354,61.0768789 0.763374699,60.459831 C0.387095855,59.8427831 0.387095855,59.0672169 0.763374699,58.450169 C1.13965354,57.8331211 1.82914564,57.4780107 2.55,57.53 L34.55,57.53 C35.2708544,57.4780107 35.9603465,57.8331211 36.3366253,58.450169 C36.7129041,59.0672169 36.7129041,59.8427831 36.3366253,60.459831 C35.9603465,61.0768789 35.2708544,61.4319893 34.55,61.38 L34.55,61.38 Z" id="Path"></path>
            <path d="M102.45,61.38 L70.45,61.38 C69.4405816,61.3071989 68.6588344,60.4670403 68.6588344,59.455 C68.6588344,58.4429597 69.4405816,57.6028011 70.45,57.53 L102.45,57.53 C103.170854,57.4780107 103.860346,57.8331211 104.236625,58.450169 C104.612904,59.0672169 104.612904,59.8427831 104.236625,60.459831 C103.860346,61.0768789 103.170854,61.4319893 102.45,61.38 L102.45,61.38 Z" id="Path"></path>
            <path d="M34.05,49 C33.7960469,48.9974372 33.5449056,48.9465302 33.31,48.85 L4.37,36.85 C3.68777428,36.6197859 3.19042296,36.0289511 3.07993999,35.3174568 C2.96945702,34.6059626 3.26421512,33.8921267 3.84450143,33.4658659 C4.42478774,33.039605 5.19410377,32.9718042 5.84,33.29 L34.79,45.29 C35.6367749,45.6448669 36.1163423,46.5471408 35.9367494,47.4475322 C35.7571565,48.3479236 34.9681232,48.9971613 34.05,49 L34.05,49 Z" id="Path"></path>
            <path d="M71.05,49.4500122 C70.137297,49.4455721 69.3524754,48.8023959 69.1688331,47.9083478 C68.9851908,47.0142997 69.4529409,46.1138385 70.29,45.75 L99.13,33.33 C100.095678,32.9606664 101.180875,33.4179109 101.591056,34.3669587 C102.001238,35.3160064 101.590691,36.4197167 100.66,36.87 L71.82,49.29 C71.5773009,49.3964507 71.3150164,49.4509514 71.05,49.4500122 L71.05,49.4500122 Z" id="Path"></path>
            <path d="M40.92,39.1300592 C40.3850855,39.1342204 39.8731734,38.9127549 39.51,38.52 L18.11,15.63 C17.6026131,15.1329218 17.4092683,14.3973192 17.6066634,13.7149972 C17.8040585,13.0326751 18.3602868,12.5139232 19.0546989,12.3645244 C19.749111,12.2151255 20.4694632,12.4592283 20.93,13 L42.32,35.89 C42.6698558,36.2620921 42.8570422,36.7582429 42.840152,37.2686999 C42.8232619,37.7791569 42.6036874,38.2618486 42.23,38.61 C41.8761502,38.9448739 41.4071849,39.131028 40.92,39.1300592 L40.92,39.1300592 Z" id="Path"></path>
            <path d="M65.19,40 C64.4356343,40.0044419 63.7485709,39.5667187 63.4338101,38.8811438 C63.1190493,38.1955689 63.2349259,37.3892002 63.73,36.82 L84,13.06 C84.7093384,12.3318582 85.86187,12.2787437 86.6351723,12.938558 C87.4084747,13.5983723 87.5374219,14.7448988 86.93,15.56 L66.65,39.36 C66.2798757,39.7759333 65.7466859,40.0096603 65.19,40 L65.19,40 Z" id="Path"></path>
            <path d="M52.5,35.25 C51.4340904,35.25 50.57,34.3859096 50.57,33.32 L50.57,2.06 C50.57,0.994090433 51.4340904,0.13 52.5,0.13 C53.5659096,0.13 54.43,0.994090433 54.43,2.06 L54.43,33.32 C54.43,33.8318678 54.2266613,34.3227709 53.8647161,34.6847161 C53.5027709,35.0466613 53.0118678,35.25 52.5,35.25 L52.5,35.25 Z" id="Path"></path>
        </g>
    </g>
</svg>
